<?xml version="1.0" standalone="no"?>
<svg width="600" height="250" xmlns="http://www.w3.org/2000/svg" viewbox="0 0 600 250" xmlns:cc="http://creativecommons.org/ns#" xmlns:dc="http://purl.org/dc/elements/1.1/" xmlns:ev="http://www.w3.org/2001/xml-events" xmlns:rdf="http://www.w3.org/1999/02/22-rdf-syntax-ns#" xmlns:svg="http://www.w3.org/2000/svg" xmlns:xlink="http://www.w3.org/1999/xlink"><g transform="  translate(40 90) "><g><polygon points="0,50 50,0 150,0 100,50 150,100 50,100" fill="green" stroke-width="10" stroke="black" stroke-linejoin="round"/></g><g transform="  translate(100 0) "><polygon points="0,50 50,0 100,50 125,25 175,25 75,125" fill="white" stroke-width="10" stroke="black" stroke-linejoin="round"/></g><g transform="  translate(250 0) "><polygon points="0,100 -25,75 75,-25 125,25 100,50 125,75 100,100" fill="white" stroke-width="10" stroke="black" stroke-linejoin="round"/><polyline points="50,25 75,25 100,50" fill="transparent" stroke-width="10" stroke="black" stroke-linecap="round" stroke-linejoin="round"/><polyline points="50,75 75,75 100,50" fill="transparent" stroke-width="10" stroke="black" stroke-linecap="round" stroke-linejoin="round"/></g><g transform="  translate(350 0) "><polygon points="0,0 100,0 150,50 125,75 150,100 100,100 75,75 50,100 0,100 25,75 0,50 25,25" fill="red" stroke-width="10" stroke="black" stroke-linejoin="round"/></g></g></svg>